<?xml version="1.0" encoding="utf-8"?>
<svg xmlns="http://www.w3.org/2000/svg" width="512" height="512" fill="none">
  <g clip-path="url(#a)">
    <g filter="url(#b)">
      <circle cx="256" cy="256" r="256" fill="#EF0000"/>
    </g>
    <path fill="#fff" d="M75.7 141.55h49.406v15.38h-24.101v197.54h25.065v15.38H75.7zm309.93 228.059v-15.38h25.065V156.93h-24.101v-15.38H436v228.059z"/>
    <path fill="#fff" d="M120.286 255.7c0-63.684 13.255-86.033 42.416-86.033 29.162 0 40.971 21.388 40.971 68.49h-33.018c1.205-32.202-2.169-45.66-7.712-45.66s-9.64 17.543-9.64 63.203 2.41 63.203 9.64 63.203 10.845-12.016 9.64-48.303h-11.327v-18.985h43.381V270.6c0 51.187-14.46 71.133-41.212 71.133-26.751 0-43.139-19.225-43.139-86.033m93.509-83.63h33.74c31.572 0 51.093 22.83 51.093 83.63s-19.521 83.63-51.093 83.63h-33.74zm52.057 83.63c0-39.892-7.471-62.722-19.281-62.722v125.204c11.81 0 19.281-22.59 19.281-62.722zm42.175 0c0-63.684 13.496-86.033 42.176-86.033 28.679 0 41.452 22.109 40.729 68.73h-33.017c1.205-30.52-2.169-45.66-7.712-45.66s-9.158 17.543-9.158 63.203 3.133 63.203 9.158 63.203 9.158-21.388 8.194-67.048h33.017c.723 60.319-13.496 90.119-41.211 90.119-27.716 0-42.176-21.388-42.176-86.033z"/>
  </g>
  <defs>
    <clipPath id="a">
      <path fill="#fff" d="M0 0h512v512H0z"/>
    </clipPath>
    <filter id="b" width="672" height="672" x="-80" y="-84" color-interpolation-filters="sRGB" filterUnits="userSpaceOnUse">
      <feFlood flood-opacity="0" result="BackgroundImageFix"/>
      <feColorMatrix in="SourceAlpha" result="hardAlpha" values="0 0 0 0 0 0 0 0 0 0 0 0 0 0 0 0 0 0 127 0"/>
      <feOffset dy="-.111"/>
      <feGaussianBlur stdDeviation="1.107"/>
      <feColorMatrix values="0 0 0 0 0 0 0 0 0 0 0 0 0 0 0 0 0 0 0.07 0"/>
      <feBlend in2="BackgroundImageFix" result="effect1_dropShadow_7_3"/>
      <feColorMatrix in="SourceAlpha" result="hardAlpha" values="0 0 0 0 0 0 0 0 0 0 0 0 0 0 0 0 0 0 127 0"/>
      <feOffset dy="-.266"/>
      <feGaussianBlur stdDeviation="2.66"/>
      <feColorMatrix values="0 0 0 0 0 0 0 0 0 0 0 0 0 0 0 0 0 0 0.0503198 0"/>
      <feBlend in2="effect1_dropShadow_7_3" result="effect2_dropShadow_7_3"/>
      <feColorMatrix in="SourceAlpha" result="hardAlpha" values="0 0 0 0 0 0 0 0 0 0 0 0 0 0 0 0 0 0 127 0"/>
      <feOffset dy="-.501"/>
      <feGaussianBlur stdDeviation="5.009"/>
      <feColorMatrix values="0 0 0 0 0 0 0 0 0 0 0 0 0 0 0 0 0 0 0.0417275 0"/>
      <feBlend in2="effect2_dropShadow_7_3" result="effect3_dropShadow_7_3"/>
      <feColorMatrix in="SourceAlpha" result="hardAlpha" values="0 0 0 0 0 0 0 0 0 0 0 0 0 0 0 0 0 0 127 0"/>
      <feOffset dy="-.893"/>
      <feGaussianBlur stdDeviation="8.935"/>
      <feColorMatrix values="0 0 0 0 0 0 0 0 0 0 0 0 0 0 0 0 0 0 0.035 0"/>
      <feBlend in2="effect3_dropShadow_7_3" result="effect4_dropShadow_7_3"/>
      <feColorMatrix in="SourceAlpha" result="hardAlpha" values="0 0 0 0 0 0 0 0 0 0 0 0 0 0 0 0 0 0 127 0"/>
      <feOffset dy="-1.671"/>
      <feGaussianBlur stdDeviation="16.711"/>
      <feColorMatrix values="0 0 0 0 0 0 0 0 0 0 0 0 0 0 0 0 0 0 0.0282725 0"/>
      <feBlend in2="effect4_dropShadow_7_3" result="effect5_dropShadow_7_3"/>
      <feColorMatrix in="SourceAlpha" result="hardAlpha" values="0 0 0 0 0 0 0 0 0 0 0 0 0 0 0 0 0 0 127 0"/>
      <feOffset dy="-4"/>
      <feGaussianBlur stdDeviation="40"/>
      <feColorMatrix values="0 0 0 0 0 0 0 0 0 0 0 0 0 0 0 0 0 0 0.0196802 0"/>
      <feBlend in2="effect5_dropShadow_7_3" result="effect6_dropShadow_7_3"/>
      <feBlend in="SourceGraphic" in2="effect6_dropShadow_7_3" result="shape"/>
    </filter>
  </defs>
</svg>