<svg xmlns="http://www.w3.org/2000/svg" width="161.664" height="168.475" viewBox="0 0 161.664 168.475">
  <g id="Group_107" data-name="Group 107" transform="translate(-915.995 -580.578)">
    <g id="Group_105" data-name="Group 105" transform="translate(915.995 580.578)">
      <path id="Path_63" data-name="Path 63" d="M1059.991,749.053l-41.661-27.926H985.975L915.995,672.6V580.578h89.2l72.462,50.247v90.3h-17.668Z" transform="translate(-915.995 -580.578)" fill="#fff"/>
    </g>
    <g id="Group_106" data-name="Group 106" transform="translate(915.995 580.578)">
      <path id="Path_64" data-name="Path 64" d="M934.514,598.845h19.474v4.478h-7.124v18.914h-5.259V603.323h-7.091Z" transform="translate(-907.235 -571.937)" fill="#101010"/>
      <path id="Path_65" data-name="Path 65" d="M949.655,598.845h5.259V608.6h10.553v-9.757h5.262v23.392h-5.262v-9.223H954.914v9.223h-5.259Z" transform="translate(-900.072 -571.937)" fill="#101010"/>
      <path id="Path_66" data-name="Path 66" d="M967.44,598.845h17.741v4.376H972.7V608.3h11.219v4.378H972.7v5.179h12.851v4.376H967.44Z" transform="translate(-891.659 -571.937)" fill="#101010"/>
      <path id="Path_67" data-name="Path 67" d="M946.659,624.542a11.513,11.513,0,0,0-3.445-.651,4.05,4.05,0,0,0-2.164.5,1.63,1.63,0,0,0-.8,1.472,2.058,2.058,0,0,0,1.147,1.887,17.629,17.629,0,0,0,3.546,1.354,30.586,30.586,0,0,1,3.945,1.4,7,7,0,0,1,2.646,2.106,5.838,5.838,0,0,1,1.1,3.709,6.382,6.382,0,0,1-1.181,3.859,7.293,7.293,0,0,1-3.245,2.457,12.465,12.465,0,0,1-4.695.834,16,16,0,0,1-5.559-1,15,15,0,0,1-4.727-2.741l2.1-4.312a14.131,14.131,0,0,0,4.06,2.573,10.872,10.872,0,0,0,4.2.971,4.6,4.6,0,0,0,2.547-.6,2.1,2.1,0,0,0,.3-3.224,4.721,4.721,0,0,0-1.563-.952q-.95-.369-2.615-.837a29.185,29.185,0,0,1-3.911-1.336,6.886,6.886,0,0,1-2.613-2.039,5.652,5.652,0,0,1-1.1-3.643,6.2,6.2,0,0,1,1.131-3.691,7.187,7.187,0,0,1,3.163-2.441,12.15,12.15,0,0,1,4.726-.851,16.283,16.283,0,0,1,4.727.7,15.959,15.959,0,0,1,4.129,1.872l-2.033,4.378A17.554,17.554,0,0,0,946.659,624.542Z" transform="translate(-907.844 -562.239)" fill="#101010"/>
      <path id="Path_68" data-name="Path 68" d="M947.35,619.641h19.472v4.479H959.7v18.914H954.44V624.12h-7.09Z" transform="translate(-901.163 -562.1)" fill="#101010"/>
      <path id="Path_69" data-name="Path 69" d="M979.377,620.964a11.969,11.969,0,0,1,0,20.969,13.521,13.521,0,0,1-12.715,0,11.957,11.957,0,0,1-.018-20.969,13.681,13.681,0,0,1,12.733,0Zm-9.887,4.027a7.191,7.191,0,0,0-2.631,2.688,7.6,7.6,0,0,0,2.647,10.226,6.758,6.758,0,0,0,3.579,1,6.664,6.664,0,0,0,3.546-.985,7.121,7.121,0,0,0,2.562-2.706,7.73,7.73,0,0,0,.949-3.793,7.573,7.573,0,0,0-.949-3.743,7.156,7.156,0,0,0-2.562-2.688,6.667,6.667,0,0,0-3.546-.988A6.924,6.924,0,0,0,969.49,624.991Z" transform="translate(-894.941 -562.217)" fill="#101010"/>
      <path id="Path_70" data-name="Path 70" d="M994.161,643.034l-3.7-6.685H985.1v6.685h-5.257V619.641h10.118q4.561,0,7.057,2.123a7.44,7.44,0,0,1,2.5,6,9.073,9.073,0,0,1-1.115,4.63,7.182,7.182,0,0,1-3.245,2.924l4.958,7.719ZM985.1,631.939h4.861a5.017,5.017,0,0,0,3.379-1.019,3.734,3.734,0,0,0,1.181-2.99,3.6,3.6,0,0,0-1.181-2.924,5.141,5.141,0,0,0-3.379-.987H985.1Z" transform="translate(-885.79 -562.1)" fill="#101010"/>
      <path id="Path_71" data-name="Path 71" d="M1016.61,619.641l-8.486,15.843v7.551h-5.26v-7.418l-8.622-15.975h5.293l5.958,10.494,5.824-10.494Z" transform="translate(-878.981 -562.1)" fill="#101010"/>
      <path id="Path_72" data-name="Path 72" d="M956.808,640.437h5.858l7.256,14.371,7.191-14.371h5.824V663.83h-4.727V648.023l-6.623,13.434h-3.4l-6.657-13.434V663.83h-4.727Z" transform="translate(-896.689 -552.262)" fill="#101010"/>
      <path id="Path_73" data-name="Path 73" d="M995.794,641.758a11.971,11.971,0,0,1,0,20.97,13.524,13.524,0,0,1-12.717,0,11.96,11.96,0,0,1-.016-20.97,13.69,13.69,0,0,1,12.733,0Zm-9.888,4.027a7.173,7.173,0,0,0-2.629,2.691,7.6,7.6,0,0,0,2.647,10.224,6.752,6.752,0,0,0,3.579,1,6.682,6.682,0,0,0,3.546-.985,7.141,7.141,0,0,0,2.562-2.709,7.718,7.718,0,0,0,.949-3.792,7.563,7.563,0,0,0-.949-3.741,7.177,7.177,0,0,0-2.562-2.691,6.669,6.669,0,0,0-3.546-.985A6.926,6.926,0,0,0,985.906,645.786Z" transform="translate(-887.175 -552.38)" fill="#101010"/>
      <path id="Path_74" data-name="Path 74" d="M1013.074,642.009a4.96,4.96,0,0,1,2.23,4.276,5.145,5.145,0,0,1-1.08,3.258,5.4,5.4,0,0,1-2.948,1.89,5.853,5.853,0,0,1,3.563,2.02,5.962,5.962,0,0,1,1.3,3.893,5.577,5.577,0,0,1-2.364,4.746,10.627,10.627,0,0,1-6.424,1.738H996.265V640.437h10.718A10.413,10.413,0,0,1,1013.074,642.009Zm-4.011,7.168a2.33,2.33,0,0,0,.85-1.921,2.25,2.25,0,0,0-.85-1.872,3.563,3.563,0,0,0-2.347-.635h-5.194v5.113h5.194A3.637,3.637,0,0,0,1009.063,649.177Zm.583,9.591a2.417,2.417,0,0,0,1.065-2.09,2.315,2.315,0,0,0-1.065-2,4.954,4.954,0,0,0-2.93-.7h-5.194v5.549h5.194A5.011,5.011,0,0,0,1009.646,658.767Z" transform="translate(-878.024 -552.262)" fill="#101010"/>
      <path id="Path_75" data-name="Path 75" d="M1059.991,749.053l-41.661-27.926H985.975L915.995,672.6V580.578h89.2l72.462,50.247v90.3h-17.668Zm-72.184-33.781h32.307l34.023,22.808V715.272H1071.8V633.89l-68.44-47.458H921.85v83.1Z" transform="translate(-915.995 -580.578)" fill="#101010"/>
    </g>
  </g>
</svg>
