<svg xmlns="http://www.w3.org/2000/svg" viewBox="0 0 1200 630" width="1200" height="630">
  <defs>
    <radialGradient id="glow" cx="50%" cy="35%" r="55%">
      <stop offset="0%" stop-color="#A855F7" stop-opacity="0.30"/>
      <stop offset="55%" stop-color="#A855F7" stop-opacity="0.05"/>
      <stop offset="100%" stop-color="#A855F7" stop-opacity="0"/>
    </radialGradient>
  </defs>
  <rect width="1200" height="630" fill="#0A0B0E"/>
  <rect width="1200" height="630" fill="url(#glow)"/>
  <g transform="translate(480, 90)">
    <rect width="240" height="240" rx="36" ry="36" fill="#A855F7"/>
    <g fill="#0A0B0E">
      <rect x="60" y="60" width="24" height="24"/><rect x="84" y="60" width="24" height="24"/><rect x="108" y="60" width="24" height="24"/><rect x="132" y="60" width="24" height="24"/><rect x="156" y="60" width="24" height="24"/>
      <rect x="60" y="84" width="24" height="24"/>
      <rect x="60" y="108" width="24" height="24"/><rect x="108" y="108" width="24" height="24"/><rect x="132" y="108" width="24" height="24"/><rect x="156" y="108" width="24" height="24"/>
      <rect x="60" y="132" width="24" height="24"/><rect x="156" y="132" width="24" height="24"/>
      <rect x="60" y="156" width="24" height="24"/><rect x="84" y="156" width="24" height="24"/><rect x="108" y="156" width="24" height="24"/><rect x="132" y="156" width="24" height="24"/><rect x="156" y="156" width="24" height="24"/>
    </g>
  </g>
  <text x="600" y="430" text-anchor="middle" font-family="Inter, Helvetica, Arial, sans-serif" font-weight="900" font-size="76" fill="#F5F5F7" letter-spacing="-2.5">GAMES GROWTH <tspan fill="#C084FC">GUILD</tspan></text>
  <text x="600" y="500" text-anchor="middle" font-family="Inter, Helvetica, Arial, sans-serif" font-weight="500" font-size="26" fill="#9097A1">A global network of marketing pros driving the</text>
  <text x="600" y="535" text-anchor="middle" font-family="Inter, Helvetica, Arial, sans-serif" font-weight="500" font-size="26" fill="#9097A1">games industry forward, from indie to AAA.</text>
</svg>
