<svg viewBox="0 0 240 240" xmlns="http://www.w3.org/2000/svg">
  <rect width="240" height="240" rx="36" ry="36" fill="#A855F7"/>
  <g fill="#0A0B0E">
    <rect x="60" y="60" width="24" height="24"/><rect x="84" y="60" width="24" height="24"/><rect x="108" y="60" width="24" height="24"/><rect x="132" y="60" width="24" height="24"/><rect x="156" y="60" width="24" height="24"/>
    <rect x="60" y="84" width="24" height="24"/>
    <rect x="60" y="108" width="24" height="24"/><rect x="108" y="108" width="24" height="24"/><rect x="132" y="108" width="24" height="24"/><rect x="156" y="108" width="24" height="24"/>
    <rect x="60" y="132" width="24" height="24"/><rect x="156" y="132" width="24" height="24"/>
    <rect x="60" y="156" width="24" height="24"/><rect x="84" y="156" width="24" height="24"/><rect x="108" y="156" width="24" height="24"/><rect x="132" y="156" width="24" height="24"/><rect x="156" y="156" width="24" height="24"/>
  </g>
</svg>
